<?xml version="1.0" encoding="utf-8"?>
<!-- Generator: Adobe Illustrator 23.1.1, SVG Export Plug-In . SVG Version: 6.00 Build 0)  -->
<svg version="1.1" id="Layer_1" xmlns="http://www.w3.org/2000/svg" xmlns:xlink="http://www.w3.org/1999/xlink" x="0px" y="0px"
	 viewBox="0 0 500 560" style="enable-background:new 0 0 500 560;" xml:space="preserve">
<style type="text/css">
	.st0{font-family:'MSReferenceSansSerif';}
	.st1{font-size:97.9855px;}
</style>
<text transform="matrix(0.9467 0 0 1 0 264.4839)"><tspan x="0" y="0" class="st0 st1">ESPRESSO</tspan><tspan x="0" y="117.58" class="st0 st1">     ETC</tspan></text>
<g>
	<g>
		<path d="M477.89,168.27c1.06-3.16,1.8-6.6,2.14-9.96c0.31-3.06,0.33-6.1,0.05-9.03c-0.08-0.83-0.17-1.63-0.24-2.01l-0.13-0.91
			c-0.03-0.23-0.05-0.42-0.09-0.59l-0.05-0.26c-0.05-0.28-0.1-0.57-0.13-0.84c0-0.02,0-0.04-0.01-0.07
			c-0.02-0.12-0.04-0.25-0.06-0.39c-0.03-0.18-0.07-0.39-0.09-0.6c0-0.03-0.01-0.05-0.01-0.08c-0.2-1.39-0.33-2.64-0.41-3.81
			c-0.09-1.38-0.1-2.49-0.02-3.62c0.08-1.29,0.31-2.66,0.68-4.1c0.33-1.3,0.81-2.76,1.41-4.33c0.54-1.4,1.13-2.71,1.64-3.8
			c0.34-0.72,0.65-1.36,0.93-1.92c0.22-0.44,0.29-0.93,0.19-1.32c-0.1-0.39-0.35-0.62-0.68-0.62c-0.49,0-1.01,0.05-1.54,0.16
			c-1.12,0.21-2.32,0.64-3.57,1.3c-1.59,0.84-3.16,2.03-4.68,3.54c-1.86,1.84-3.61,4.19-5.04,6.79c-1.59,2.85-2.92,6.25-3.75,9.57
			c-0.82,3.21-1.26,6.64-1.3,9.94c-0.01,1.72,0.06,3.19,0.2,4.45c0.03,0.39,0.15,1.43,0.15,1.44l0.05,0.41
			c0.04,0.28,0.06,0.49,0.08,0.71c0.02,0.2,0.04,0.36,0.06,0.53l0,0.03c0.21,2,0.34,3.46,0.41,4.73c0.09,1.4,0.12,2.75,0.1,4.1
			c-0.02,1.44-0.12,2.67-0.3,3.87c-0.21,1.36-0.57,2.78-1.05,4.23c-0.42,1.28-0.99,2.68-1.73,4.26c-0.68,1.44-1.37,2.72-1.88,3.65
			c-0.36,0.64-0.69,1.22-0.99,1.72c-0.25,0.43-0.36,0.94-0.29,1.35c0.06,0.34,0.22,0.58,0.46,0.67c0.06,0.02,0.12,0.04,0.18,0.04
			c0.46,0.04,0.93,0.04,1.4-0.01c1.11-0.1,2.29-0.41,3.5-0.92c1.57-0.66,3.16-1.67,4.72-3.01c1.89-1.62,3.72-3.75,5.29-6.15
			C475.28,174.71,476.79,171.56,477.89,168.27z"/>
		<path d="M457.28,169.7c0.14-1.4,0.15-2.79,0.02-4.12c-0.03-0.34-0.08-0.73-0.11-0.9l-0.06-0.43c-0.01-0.11-0.03-0.19-0.04-0.27
			l-0.02-0.11c-0.02-0.13-0.05-0.25-0.06-0.38c0-0.02,0-0.04-0.01-0.07l-0.03-0.15c-0.02-0.09-0.03-0.18-0.04-0.26
			c0-0.02,0-0.05-0.01-0.07c-0.09-0.61-0.15-1.18-0.18-1.71c-0.03-0.46-0.05-1.01-0.01-1.66c0.04-0.59,0.14-1.21,0.31-1.87
			c0.15-0.59,0.37-1.26,0.65-1.97c0.23-0.6,0.48-1.15,0.64-1.51c0.22-0.48,0.27-1.01,0.12-1.39c-0.15-0.38-0.46-0.55-0.83-0.46
			c-0.42,0.11-0.87,0.29-1.32,0.52c-0.72,0.38-1.44,0.93-2.14,1.61c-0.59,0.59-1.47,1.6-2.3,3.09c-0.73,1.3-1.34,2.86-1.72,4.37
			c-0.37,1.47-0.58,3.04-0.59,4.55c0,0.78,0.03,1.45,0.09,2.02c0.02,0.17,0.06,0.52,0.08,0.68l0,0l0.02,0.17
			c0.02,0.13,0.03,0.23,0.04,0.33c0.01,0.09,0.02,0.16,0.03,0.22l0,0.03c0.06,0.62,0.14,1.42,0.19,2.16
			c0.04,0.64,0.05,1.25,0.05,1.87c-0.01,0.65-0.05,1.22-0.14,1.76c-0.1,0.62-0.26,1.27-0.48,1.94c-0.19,0.58-0.45,1.22-0.78,1.94
			c-0.2,0.42-0.42,0.87-0.69,1.35c-0.25,0.47-0.34,1.02-0.22,1.43c0.08,0.26,0.23,0.45,0.43,0.53c0.11,0.05,0.24,0.06,0.37,0.03
			c0.38-0.07,0.79-0.2,1.19-0.37c0.72-0.3,1.44-0.76,2.16-1.37c0.86-0.74,1.7-1.71,2.41-2.81c0.79-1.2,1.49-2.68,1.99-4.16
			C456.79,172.81,457.12,171.23,457.28,169.7z"/>
	</g>
</g>
</svg>
